<?xml version="1.0" encoding="UTF-8"?>
<!-- Created with Inkscape (http://www.inkscape.org/) -->
<svg width="218.7" height="222.02" version="1.1" viewBox="0 0 218.7 222.02" xmlns="http://www.w3.org/2000/svg" xmlns:cc="http://creativecommons.org/ns#" xmlns:dc="http://purl.org/dc/elements/1.1/" xmlns:rdf="http://www.w3.org/1999/02/22-rdf-syntax-ns#">
 <metadata>
  <rdf:RDF>
   <cc:Work rdf:about="">
    <dc:format>image/svg+xml</dc:format>
    <dc:type rdf:resource="http://purl.org/dc/dcmitype/StillImage"/>
    <dc:title/>
   </cc:Work>
  </rdf:RDF>
 </metadata>
 <path d="m105 201.93c-25.835-1.4123-49.351-13.427-65.361-33.396-11.538-14.39-18.269-31.865-19.464-50.528-1.3563-21.192 5.3571-43.002 18.438-59.902 4.3703-5.646 9.5697-10.904 15.352-15.526 10.11-8.0802 22.83-14.149 35.842-17.101 2.6239-0.59527 2.525-0.64862 1.7283 0.93221-0.85168 1.6899-1.6205 4.0686-1.904 5.8909-0.11948 0.768-0.2311 1.4151-0.24804 1.438-0.01695 0.02292-1.1248 0.35124-2.4619 0.7296-15.983 4.5228-30.538 14.217-41.039 27.333-9.7435 12.17-15.546 26.216-17.45 42.238-0.44261 3.7253-0.44272 13.553-1.92e-4 17.28 2.2493 18.943 10.149 35.526 23.156 48.609 11.592 11.66 25.949 19.366 42.065 22.579 5.6593 1.1282 8.9537 1.4237 15.796 1.4173 7.9042-8e-3 12.404-0.53434 19.462-2.2788 20.897-5.165 38.863-18.391 50.067-36.857 1.7223-2.8387 4.896-9.2198 6.0551-12.175 2.61-6.6535 4.3638-13.755 5.259-21.295 0.24154-2.0342 0.31088-3.9613 0.31088-8.64 0-6.4426-0.16425-8.5884-1.0555-13.789-2.1452-12.519-7.2278-24.404-14.819-34.655-6.4082-8.6532-14.711-16.145-23.912-21.576-6.5018-3.8381-14.069-7.0026-20.784-8.6918l-0.71139-0.17895-0.22016-1.4415c-0.28603-1.8727-1.0526-4.24-1.9221-5.936-0.5414-1.056-0.6331-1.3527-0.41798-1.3527 1.0873 0 9.3091 2.2319 12.512 3.3965 6.8403 2.4874 13.316 5.708 19.05 9.4735 10.692 7.0226 19.87 16.36 26.605 27.067 12.221 19.43 16.54 42.838 12.033 65.226-1.836 9.1209-5.1762 18.162-9.6637 26.156-7.1835 12.798-17.641 23.853-29.957 31.672-12.878 8.1747-27.43 12.88-42.74 13.819-2.6357 0.16166-7.2269 0.19093-9.6 0.0612zm1.0473-16.66c-16.27-1.6361-29.104-14.028-31.341-30.263-0.2207-1.6012-0.2681-2.8962-0.20124-5.4982 0.09596-3.7344 0.42373-5.9436 1.3388-9.024 2.5365-8.5381 8.4728-15.977 16.327-20.459l1.5709-0.89647 0.17502-86.304 0.3968-1.2788c2.2015-7.0949 8.0477-11.55 15.156-11.55 7.2581 0 13.294 4.6506 15.293 11.782 0.39004 1.392 0.39142 1.445 0.44432 17.056l0.0531 15.66 13.717 0.09884 0.66148 0.5047c1.8664 1.4241 1.6107 4.3138-0.47087 5.3214-0.73789 0.3572-0.99632 0.37024-7.3424 0.37024h-6.5776v12.742h6.5776c6.3461 0 6.6045 0.01304 7.3424 0.37024 2.0816 1.0077 2.3373 3.8974 0.47087 5.3214l-0.66148 0.5047-13.729 0.09888v12.73l6.3273 1e-3c3.979 5.2e-4 6.5784 0.0707 7.0039 0.18885 1.6222 0.45042 2.6831 2.2924 2.2167 3.8489-0.28495 0.95107-1.2962 1.9741-2.1991 2.2248-0.44743 0.12422-2.9437 0.19309-7.0215 0.19371l-6.3273 9e-4v10.235l2.0057 1.1934c8.5924 5.1126 14.66 13.833 16.518 23.739 0.46073 2.4568 0.63057 7.4904 0.3391 10.05-1.2381 10.875-7.3309 20.445-16.626 26.115-6.301 3.8439-14.178 5.6529-21.436 4.923zm12.829-126.44c0-23.593-0.0135-24.651-0.32679-25.571-1.4295-4.1994-4.8818-6.8073-9.0114-6.8073-4.4222 0-8.4648 3.3176-9.2377 7.5811-0.1281 0.70665-0.18775 8.7342-0.18775 25.267v24.231l18.764-0.0903z" stroke-width=".17455"/>
</svg>
