<?xml version="1.0" encoding="UTF-8" standalone="no"?>
<!-- Created with Inkscape (http://www.inkscape.org/) -->

<svg
   xmlns:dc="http://purl.org/dc/elements/1.1/"
   xmlns:cc="http://creativecommons.org/ns#"
   xmlns:rdf="http://www.w3.org/1999/02/22-rdf-syntax-ns#"
   xmlns:svg="http://www.w3.org/2000/svg"
   xmlns="http://www.w3.org/2000/svg"
   xmlns:sodipodi="http://sodipodi.sourceforge.net/DTD/sodipodi-0.dtd"
   xmlns:inkscape="http://www.inkscape.org/namespaces/inkscape"
   version="1.1"
   id="svg4698"
   width="220"
   height="220"
   viewBox="0 0 220 220.00001"
   sodipodi:docname="icon.inkscape.svg"
   inkscape:version="0.92.4 (5da689c313, 2019-01-14)">
  <metadata
     id="metadata4704">
    <rdf:RDF>
      <cc:Work
         rdf:about="">
        <dc:format>image/svg+xml</dc:format>
        <dc:type
           rdf:resource="http://purl.org/dc/dcmitype/StillImage" />
        <dc:title></dc:title>
      </cc:Work>
    </rdf:RDF>
  </metadata>
  <defs
     id="defs4702" />
  <sodipodi:namedview
     pagecolor="#ffffff"
     bordercolor="#666666"
     borderopacity="1"
     objecttolerance="10"
     gridtolerance="10"
     guidetolerance="10"
     inkscape:pageopacity="0"
     inkscape:pageshadow="2"
     inkscape:window-width="2560"
     inkscape:window-height="1376"
     id="namedview4700"
     showgrid="false"
     fit-margin-top="20"
     fit-margin-left="20"
     fit-margin-right="19.6"
     fit-margin-bottom="20"
     inkscape:zoom="5.0592453"
     inkscape:cx="86.844161"
     inkscape:cy="122.64553"
     inkscape:window-x="0"
     inkscape:window-y="27"
     inkscape:window-maximized="1"
     inkscape:current-layer="svg4698" />
  <path
     style="fill:#000000;stroke-width:0.17454545"
     d="M 105.64706,200.92629 C 79.811608,199.51397 56.295986,187.49894 40.285615,167.53061 28.748014,153.14077 22.016433,135.66548 20.821977,117.00268 19.465667,95.811 26.17911,74.000419 39.260078,57.101122 c 4.370278,-5.645961 9.569714,-10.904024 15.35243,-15.525541 10.110409,-8.080188 22.829885,-14.14884 35.842145,-17.100824 2.623936,-0.595271 2.525023,-0.648623 1.728291,0.932212 -0.851679,1.68986 -1.620516,4.068598 -1.904017,5.890909 -0.119479,0.768 -0.231098,1.415115 -0.248039,1.438035 -0.01695,0.02292 -1.12478,0.351239 -2.461861,0.729603 -15.982784,4.522763 -30.537808,14.216788 -41.038679,27.332828 -9.743542,12.170108 -15.546284,26.215734 -17.449886,42.237716 -0.442614,3.72534 -0.442724,13.55305 -1.92e-4,17.28 2.249292,18.94333 10.148639,35.52583 23.155883,48.60942 11.591509,11.65953 25.948641,19.36569 42.065454,22.57853 5.659266,1.12816 8.953663,1.42373 15.796363,1.41728 7.90424,-0.008 12.40407,-0.53434 19.46181,-2.27875 20.89723,-5.16502 38.86309,-18.39065 50.0672,-36.85714 1.72233,-2.83873 4.89597,-9.21985 6.05511,-12.17479 2.60999,-6.65352 4.36379,-13.75489 5.25903,-21.29455 0.24154,-2.03422 0.31088,-3.96128 0.31088,-8.64 0,-6.44259 -0.16425,-8.58838 -1.05547,-13.789088 C 188.05128,85.36834 182.96871,73.482663 175.37715,63.231627 168.96893,54.578471 160.66608,47.086549 151.46523,41.655156 144.9634,37.817029 137.39642,34.652574 130.68111,32.963389 l -0.71139,-0.178946 -0.22016,-1.441464 c -0.28603,-1.872739 -1.05257,-4.239989 -1.92214,-5.93601 -0.5414,-1.05596 -0.6331,-1.352728 -0.41798,-1.352728 1.08732,0 9.30913,2.231929 12.51166,3.396471 6.84034,2.48736 13.31641,5.70795 19.04959,9.473473 10.69227,7.022635 19.86963,16.359585 26.60475,27.067399 12.22123,19.429875 16.53951,42.838066 12.03282,65.226296 -1.83601,9.12093 -5.17623,18.16171 -9.66371,26.15626 -7.18351,12.79757 -17.64072,23.85327 -29.95742,31.67191 -12.87761,8.17472 -27.43024,12.87997 -42.74007,13.81903 -2.6357,0.16166 -7.22694,0.19093 -9.6,0.0612 z m 1.04727,-16.66035 c -16.269517,-1.6361 -29.103534,-14.02845 -31.341154,-30.2626 -0.2207,-1.60121 -0.268098,-2.89623 -0.201235,-5.49818 0.09596,-3.7344 0.423726,-5.94355 1.338844,-9.02395 2.53648,-8.53812 8.472767,-15.97662 16.327185,-20.45888 l 1.570909,-0.89647 0.08751,-43.152171 0.08751,-43.152174 0.396796,-1.278784 c 2.201488,-7.094918 8.047745,-11.550308 15.156045,-11.550308 7.25808,0 13.29444,4.650588 15.29256,11.781819 0.39004,1.392023 0.39142,1.445044 0.44432,17.056031 l 0.0531,15.659669 6.85853,0.04942 6.85854,0.04942 0.66148,0.504703 c 1.8664,1.424052 1.6107,4.313754 -0.47087,5.321424 -0.73789,0.357205 -0.99632,0.370237 -7.34242,0.370237 h -6.57762 v 6.370909 6.37091 h 6.57762 c 6.3461,0 6.60453,0.01304 7.34242,0.370237 2.08157,1.00767 2.33727,3.897371 0.47087,5.321423 l -0.66148,0.504704 -6.86472,0.04944 -6.86471,0.04944 v 6.365105 6.365106 l 6.32727,0.001 c 3.97898,5.2e-4 6.5784,0.0707 7.00391,0.18885 1.62219,0.45042 2.68307,2.29242 2.21673,3.84892 -0.28495,0.95107 -1.29616,1.97407 -2.19912,2.22475 -0.44743,0.12422 -2.94369,0.19309 -7.02152,0.19371 l -6.32727,9e-4 v 5.11731 5.11732 l 2.00566,1.19339 c 8.59242,5.11257 14.66019,13.83289 16.51785,23.73867 0.46073,2.45683 0.63057,7.49041 0.3391,10.05044 -1.23808,10.8746 -7.33087,20.44476 -16.62612,26.11526 -6.30101,3.84389 -14.17805,5.65287 -21.43649,4.92295 z M 119.52342,57.828789 c 0,-23.592839 -0.0135,-24.650623 -0.32679,-25.570911 -1.42948,-4.199352 -4.88181,-6.807273 -9.01139,-6.807273 -4.42225,0 -8.46476,3.317593 -9.2377,7.581148 -0.1281,0.706646 -0.18775,8.734156 -0.18775,25.266973 v 24.231277 l 9.38181,-0.04515 9.38182,-0.04515 z"
     id="path4708"
     inkscape:connector-curvature="0" />
</svg>
