<?xml version="1.0" ?><!DOCTYPE svg  PUBLIC '-//W3C//DTD SVG 1.1//EN'  'http://www.w3.org/Graphics/SVG/1.1/DTD/svg11.dtd'><svg enable-background="new 0 0 141.732 141.732" height="141.732px" id="Livello_1" version="1.1" viewBox="0 0 141.732 141.732" width="141.732px" xml:space="preserve" xmlns="http://www.w3.org/2000/svg" xmlns:xlink="http://www.w3.org/1999/xlink"><g id="Livello_64"><path d="M79.427,13.552c0,0.022-0.003,0.043-0.004,0.064h0.004v2.643v70.022v1.117c9.879,3.381,16.985,12.738,16.985,23.762   c0,13.872-11.246,25.118-25.117,25.118c-13.877,0-25.123-11.246-25.123-25.118c0-11.123,7.24-20.552,17.259-23.854v-4.798   c-0.002,0-0.01,0.004-0.012,0.004V24.318c0.002,0.002,0.01,0.004,0.012,0.006V13.681c-0.002-0.044-0.012-0.085-0.012-0.129   c0-4.418,3.583-8,8.007-8C75.844,5.553,79.427,9.134,79.427,13.552 M84.847,70.48V59.635h10.657c1.501,0,2.711-1.209,2.711-2.71   c0-1.497-1.209-2.711-2.711-2.711H84.847V43.371h10.657c1.501,0,2.711-1.212,2.711-2.709c0-1.5-1.209-2.715-2.711-2.715H84.847   V13.618h-0.004c0.001-0.044,0.004-0.085,0.004-0.131C84.847,6.038,78.838,0,71.427,0c-7.418,0-13.424,6.038-13.424,13.487   c0,0.045,0.003,0.087,0.004,0.131h-0.004v70.965c-9.794,4.889-16.527,14.998-16.527,26.688c0,16.467,13.351,29.819,29.823,29.819   c16.466,0,29.817-13.349,29.817-29.819c0-11.585-6.611-21.622-16.265-26.553v-8.817h10.657c1.501,0,2.713-1.214,2.713-2.709   c0-1.499-1.211-2.712-2.713-2.712H84.847z"/></g><g id="Livello_1_1_"/></svg>